# xmcd
#
# Track frame offsets:
#	150
#	17905
#	36413
#	56174
#	78433
#	103109
#	123852
#	179632
#	200033
#
# Disc length: 2942 seconds
#
# Revision: 1
# Processed by: cddbd v1.5.2PL0 Copyright (c) Steve Scherf et al.
# Submitted via: audiograbber 1.83.01
#
DISCID=810b7c09
DTITLE=Vince Gill - Live At The Royal Albert Hall, London
DYEAR=1994
DGENRE=Country
TTITLE0=Cinderella
TTITLE1=Tryin' To Get Over You
TTITLE2=One More Last Chance
TTITLE3=Whenever You Come Around
TTITLE4=What Do Cowgirl's Do
TTITLE5=Don't Let Our Love Start Slippin' Away
TTITLE6=There's Nothin' Like A Woman (When You're All Alone)
TTITLE7=Out On The South Side Of Dixie
TTITLE8=I Still Believe In You (Outro)
EXTD=
EXTT0=
EXTT1=
EXTT2=
EXTT3=
EXTT4=
EXTT5=
EXTT6=
EXTT7=
EXTT8=
PLAYORDER=
